<svg id="ic_analytics" xmlns="http://www.w3.org/2000/svg" width="24" height="24" viewBox="0 0 24 24">
  <path id="Path_8423" data-name="Path 8423" d="M22.7,6.526a1.062,1.062,0,0,1-1.874.755c-.361-.333-.794-.742-1.309-1.245C18.353,7.1,16.55,8.753,14.4,10.756a1.374,1.374,0,0,1-1.975-.127h0c-.968-1.162-1.943-2.319-2.952-3.445a48.386,48.386,0,0,0-5.4,4.631A1.365,1.365,0,0,1,2.149,9.881,45.483,45.483,0,0,1,8.9,4.243l0,0h0a1.36,1.36,0,0,1,1.72.171c1.056,1.059,2.009,2.224,2.975,3.365,1.641-1.523,3.024-2.792,3.993-3.677-.44-.456-.8-.844-1.106-1.173a1.066,1.066,0,0,1,.753-1.88,17.721,17.721,0,0,1,4.144.144,1.442,1.442,0,0,1,1.174,1.178A17.9,17.9,0,0,1,22.7,6.526Z" transform="translate(-0.929 -0.992)" fill="#0072bc"/>
  <g id="Group_11286" data-name="Group 11286" transform="translate(0 8.683)" opacity="0.4">
    <path id="Path_8424" data-name="Path 8424" d="M2.761,23.641a1.6,1.6,0,0,1-1.683-1.486C1.033,21.609,1,20.857,1,19.829s.033-1.779.078-2.326a1.6,1.6,0,0,1,1.683-1.486c.4-.01.9-.017,1.521-.017s1.121.007,1.521.017A1.6,1.6,0,0,1,7.487,17.5c.045.546.078,1.3.078,2.326s-.033,1.779-.078,2.326A1.6,1.6,0,0,1,5.8,23.641c-.4.01-.9.017-1.521.017S3.161,23.652,2.761,23.641Z" transform="translate(-1 -8.341)" fill="#0072bc"/>
    <path id="Path_8425" data-name="Path 8425" d="M19.019,24.294a1.9,1.9,0,0,1-1.883-1.857c-.072-1.1-.136-2.9-.136-5.779s.064-4.675.136-5.779a1.9,1.9,0,0,1,1.883-1.857c.352-.014.77-.023,1.263-.023s.911.009,1.263.023a1.9,1.9,0,0,1,1.883,1.857c.072,1.1.136,2.9.136,5.779s-.064,4.675-.136,5.779a1.9,1.9,0,0,1-1.883,1.857c-.352.014-.77.023-1.263.023S19.371,24.308,19.019,24.294Z" transform="translate(0.436 -9)" fill="#0072bc"/>
    <path id="Path_8426" data-name="Path 8426" d="M10.944,23.922A1.8,1.8,0,0,1,9.1,22.2c-.058-.8-.1-1.987-.1-3.731s.046-2.929.1-3.731a1.8,1.8,0,0,1,1.84-1.721c.367-.011.809-.018,1.338-.018s.971.007,1.338.018a1.8,1.8,0,0,1,1.84,1.721c.058.8.1,1.987.1,3.731s-.046,2.929-.1,3.731a1.8,1.8,0,0,1-1.84,1.721c-.367.011-.809.018-1.338.018S11.311,23.934,10.944,23.922Z" transform="translate(-0.282 -8.624)" fill="#0072bc"/>
  </g>
</svg>
