<svg xmlns="http://www.w3.org/2000/svg" width="17" height="17" viewBox="0 0 17 17">
  <g id="Bell" transform="translate(-319 -210)">
    <g id="Group_13060" data-name="Group 13060" transform="translate(54 -141)">
      <g id="notification-solid-badged" transform="translate(260.934 349.667)">
        <path id="Path_8925" data-name="Path 8925" d="M21.915,43.933a1.483,1.483,0,0,0,1.433-1.267H20.427A1.483,1.483,0,0,0,21.915,43.933Z" transform="translate(-9.888 -25.6)" fill="red"/>
        <g id="Component_45_24" data-name="Component 45 – 24" transform="translate(4.067 1.333)">
          <path id="Path_8926" data-name="Path 8926" d="M19.872,15.663l-.18-.151a7.362,7.362,0,0,1-1.331-1.478,6.137,6.137,0,0,1-.716-2.427V9.115a5.248,5.248,0,0,0-.085-.9A3.835,3.835,0,0,1,14.383,4.5V4.18a5.821,5.821,0,0,0-1.761-.5V3.04a.709.709,0,0,0-1.416,0V3.7A5.55,5.55,0,0,0,6.273,9.115v2.492a6.137,6.137,0,0,1-.716,2.427,7.369,7.369,0,0,1-1.31,1.478l-.18.151v1.423H19.872Z" transform="translate(-4.067 -1.936)" fill="red"/>
          <circle id="Ellipse_830" data-name="Ellipse 830" cx="2.778" cy="2.778" r="2.778" transform="translate(11.445)" fill="red"/>
        </g>
      </g>
    </g>
  </g>
</svg>
