<svg xmlns="http://www.w3.org/2000/svg" width="24" height="24" viewBox="0 0 24 24">
  <path id="ic_cart" d="M21.276,8.485a1.478,1.478,0,0,0-1.885,0l-3.057,2.752V3.2a1.341,1.341,0,0,0-2.667,0v8.036L10.609,8.485a1.436,1.436,0,0,0-1.885,0,1.117,1.117,0,0,0,0,1.7L15,15.8l6.279-5.621a1.117,1.117,0,0,0,0-1.694ZM26.983,18.8a1.065,1.065,0,0,0-.052-.379l-2.667-7.2A1.326,1.326,0,0,0,23,10.4h-.292a2.4,2.4,0,0,1-.489.63L20.243,12.8h1.8l2.223,6H5.739l2.223-6h1.8L7.781,11.03a2.367,2.367,0,0,1-.489-.63H7a1.326,1.326,0,0,0-1.264.821l-2.667,7.2a1.066,1.066,0,0,0-.052.379C3,18.8,3,24.8,3,24.8A1.272,1.272,0,0,0,4.333,26H25.667A1.272,1.272,0,0,0,27,24.8S27,18.8,26.983,18.8Z" transform="translate(-3 -2)" fill="#0072bc"/>
</svg>
