<svg xmlns="http://www.w3.org/2000/svg" width="24" height="21.923" viewBox="0 0 24 21.923">
  <g id="timesheet" transform="translate(-11810.5 -573.423)">
    <g id="Group_11313" data-name="Group 11313" transform="translate(11810 573)">
      <path id="Subtraction_3" data-name="Subtraction 3" d="M10.579,19H2.111A2.114,2.114,0,0,1,0,16.889V2.111A2.113,2.113,0,0,1,2.111,0H16.889A2.114,2.114,0,0,1,19,2.111V7.734a7.626,7.626,0,0,0-1.9-.239l-.211,0V2.111H2.111V16.889h7.6A7.551,7.551,0,0,0,10.578,19ZM9.507,14.778H8.444V12.666H9.9a7.582,7.582,0,0,0-.39,2.111Zm-3.175,0H4.222V12.666H6.331v2.111ZM11,10.555H8.444V8.444h4.974A7.685,7.685,0,0,0,11,10.555Zm-4.672,0H4.222V8.444H6.331v2.111Zm8.446-4.222H8.444V4.222h6.334v2.11Zm-8.446,0H4.222V4.222H6.331v2.11Z" transform="translate(0.5 0.423)" fill="#0072bc"/>
      <g id="clock_solid" transform="translate(10.608 8.454)">
        <path id="Path_8434" data-name="Path 8434" d="M9.346,16.292A6.946,6.946,0,1,0,2.4,9.346,6.946,6.946,0,0,0,9.346,16.292ZM9.539,5.873a.579.579,0,0,0-1.158,0v4.1l.17.169,2.315,2.315a.579.579,0,0,0,.819-.819L9.539,9.492Z" transform="translate(-2.4 -2.4)" fill="#0072bc" fill-rule="evenodd"/>
      </g>
    </g>
  </g>
</svg>
